HIERARCHY
ROOT Hips
{
	OFFSET	0.00	0.00	0.00
	CHANNELS 6 Xposition Yposition Zposition Zrotation Xrotation Yrotation
	JOINT LeftUpLeg
	{
		OFFSET	 0.126116	-0.014019	-0.065224
		CHANNELS 3 Zrotation Xrotation Yrotation
		JOINT LeftLeg
		{
			OFFSET	 0.000000	 0.000000	 0.569914
			CHANNELS 3 Zrotation Xrotation Yrotation
			JOINT LeftFoot
			{
				OFFSET	 0.000000	 0.000000	 0.544423
				CHANNELS 3 Zrotation Xrotation Yrotation
				JOINT LeftToeBase
				{
					OFFSET	 0.000000	 0.000000	 0.207117
					CHANNELS 3 Zrotation Xrotation Yrotation
					End Site
					{
						OFFSET	 0.000000	 0.000000	 0.207117
					}
				}
			}
		}
	}
	JOINT RightUpLeg
	{
		OFFSET	-0.124023	-0.008373	-0.065224
		CHANNELS 3 Zrotation Xrotation Yrotation
		JOINT RightLeg
		{
			OFFSET	 0.000000	 0.000000	 0.570047
			CHANNELS 3 Zrotation Xrotation Yrotation
			JOINT RightFoot
			{
				OFFSET	 0.000000	 0.000000	 0.544354
				CHANNELS 3 Zrotation Xrotation Yrotation
				JOINT RightToeBase
				{
					OFFSET	 0.000000	 0.000000	 0.207540
					CHANNELS 3 Zrotation Xrotation Yrotation
					End Site
					{
						OFFSET	 0.000000	 0.000000	 0.207540
					}
				}
			}
		}
	}
	JOINT Spine
	{
		OFFSET	 0.000184	-0.007763	 0.117403
		CHANNELS 3 Zrotation Xrotation Yrotation
		JOINT Spine1
		{
			OFFSET	 0.000000	 0.000000	 0.137269
			CHANNELS 3 Zrotation Xrotation Yrotation
			JOINT Spine2
			{
				OFFSET	 0.000000	 0.000000	 0.156879
				CHANNELS 3 Zrotation Xrotation Yrotation
				JOINT LeftShoulder
				{
					OFFSET	 0.080501	-0.002496	 0.160144
					CHANNELS 3 Zrotation Xrotation Yrotation
					JOINT LeftArm
					{
						OFFSET	 0.000000	 0.000000	 0.164363
						CHANNELS 3 Zrotation Xrotation Yrotation
						JOINT LeftForeArm
						{
							OFFSET	 0.000000	 0.000000	 0.364576
							CHANNELS 3 Zrotation Xrotation Yrotation
							JOINT LeftHand
							{
								OFFSET	 0.000000	 0.000000	 0.360812
								CHANNELS 3 Zrotation Xrotation Yrotation
								JOINT LeftHandIndex1
								{
									OFFSET	 0.000000	 0.000000	 0.086006
									CHANNELS 3 Zrotation Xrotation Yrotation
									JOINT LeftHandIndex2
									{
										OFFSET	 0.000000	 0.000000	 0.047236
										CHANNELS 3 Zrotation Xrotation Yrotation
										JOINT LeftHandIndex3
										{
											OFFSET	-0.004284	-0.000551	 0.038166
											CHANNELS 3 Zrotation Xrotation Yrotation
											End Site
											{
												OFFSET	-0.004284	-0.000551	 0.038166
											}
										}
									}
								}
							}
						}
					}
				}
				JOINT Neck
				{
					OFFSET	 0.000000	 0.000000	 0.176489
					CHANNELS 3 Zrotation Xrotation Yrotation
					JOINT Head
					{
						OFFSET	 0.000000	-0.001747	 0.077940
						CHANNELS 3 Zrotation Xrotation Yrotation
						End Site
						{
							OFFSET	 0.000000	-0.001747	 0.077940
						}
					}
				}
				JOINT RightShoulder
				{
					OFFSET	-0.080363	 0.000306	 0.159706
					CHANNELS 3 Zrotation Xrotation Yrotation
					JOINT RightArm
					{
						OFFSET	 0.000000	 0.000000	 0.164196
						CHANNELS 3 Zrotation Xrotation Yrotation
						JOINT RightForeArm
						{
							OFFSET	 0.000000	 0.000000	 0.365611
							CHANNELS 3 Zrotation Xrotation Yrotation
							JOINT RightHand
							{
								OFFSET	 0.000000	 0.000000	 0.360648
								CHANNELS 3 Zrotation Xrotation Yrotation
								JOINT RightHandIndex1
								{
									OFFSET	 0.000000	 0.000000	 0.069977
									CHANNELS 3 Zrotation Xrotation Yrotation
									JOINT RightHandIndex2
									{
										OFFSET	 0.000000	 0.000000	 0.052305
										CHANNELS 3 Zrotation Xrotation Yrotation
										JOINT RightHandIndex3
										{
											OFFSET	 0.009002	-0.000782	 0.042196
											CHANNELS 3 Zrotation Xrotation Yrotation
											End Site
											{
												OFFSET	 0.009002	-0.000782	 0.042196
											}
										}
									}
								}
							}
						}
					}
				}
			}
		}
	}
}
MOTION
Frames:    10
Frame Time: 0.03333334
-0.037254	 0.295812	 0.953941	-0.195235	 34.831940	-5.655231	-178.534200	-88.091150	-1.455376	 13.771030	-80.953090	 14.018080	-24.008610	 85.820130	 25.092840	-2.385832	 28.452790	-0.000001	 117.814900	-78.329790	-68.890120	-29.761220	-82.173360	-24.412500	 51.771280	 81.999310	-41.926560	 2.384659	 28.388700	-0.000001	-4.016356	 15.478200	 2.482212	-3.664724	 22.485810	 5.994814	 4.150955	-0.979875	 0.311581	-99.155840	 68.200900	 156.813000	 10.628990	-6.119023	-36.736550	-5.075081	 10.987950	-34.346400	-23.317150	-18.232410	-17.839110	-2.027600	 6.559038	 9.033609	-5.188889	 0.308190	 3.541030	-5.234859	 0.342567	 0.430617	 0.356606	 17.601070	-6.013783	 6.645483	-26.683540	 2.364293	 97.442080	 64.646370	-159.103100	-2.769186	 4.337676	 48.905180	-6.782173	 0.490035	 29.405990	 7.623501	-17.045060	 13.525430	 1.803333	 3.979147	-15.098590	 4.898592	 3.004813	-9.310344	 5.224449	 0.395017	 2.014677
-0.037441	 0.294263	 0.961039	-0.322265	 34.000520	-5.198592	-128.189500	-89.370990	 48.964310	 12.088430	-80.233510	 12.329320	-25.890880	 85.659950	 27.044260	-2.385832	 28.452790	-0.000001	 111.139500	-79.353430	-75.545120	-27.956170	-81.360120	-22.577150	 50.417270	 82.005150	-40.454750	 2.384659	 28.388700	-0.000001	-3.918290	 15.637470	 2.360506	-3.484245	 23.404770	 5.690325	 4.102520	-2.337729	 0.187353	-98.804840	 68.446070	 157.526200	 10.132950	-4.208601	-37.658150	-4.742355	 10.920230	-34.789370	-23.917500	-18.584830	-18.399310	-2.027600	 6.559038	 9.033609	-5.188889	 0.308190	 3.541030	-5.234859	 0.342567	 0.430617	-0.196665	 13.853440	-4.739615	 6.058462	-23.224060	 1.283741	 97.232490	 64.389160	-159.862400	-3.486768	 4.090776	 49.552430	-6.301142	 0.769293	 29.663550	 7.671094	-17.192060	 14.698140	 1.803333	 3.979147	-15.098590	 4.898592	 3.004813	-9.310344	 5.224449	 0.395017	 2.014677
-0.037344	 0.292445	 0.972001	-0.391681	 32.864620	-4.732162	-29.212390	-87.926890	 148.173200	 10.370510	-78.964450	 10.592140	-27.029390	 85.278810	 28.122940	-2.385832	 28.452790	-0.000001	 99.158600	-80.391640	-87.375790	-25.625710	-80.054520	-20.196710	 47.860260	 81.936130	-37.773050	 2.384659	 28.388700	-0.000001	-3.846097	 15.891960	 2.260210	-3.218474	 24.257240	 5.285858	 3.959480	-3.774154	 0.023578	-98.133320	 69.249380	 158.423200	 9.725142	-1.405003	-38.969570	-4.290696	 10.790130	-35.318460	-24.689980	-19.124600	-19.406270	-2.027600	 6.559038	 9.033609	-5.188889	 0.308190	 3.541030	-5.234859	 0.342567	 0.430617	-0.703899	 8.639637	-3.544353	 5.468046	-18.222080	 0.144943	 96.917310	 64.145160	-160.869300	-4.286259	 3.874564	 50.256920	-6.007615	 0.955566	 30.159410	 7.410028	-17.060900	 15.909710	 1.803333	 3.979147	-15.098590	 4.898592	 3.004813	-9.310344	 5.224449	 0.395017	 2.014677
-0.036633	 0.291084	 0.983544	-0.466146	 31.646220	-4.292355	-18.960880	-85.629460	 158.645800	 8.997932	-77.569660	 9.197601	-27.233140	 84.904380	 28.252410	-2.385833	 28.452750	 0.000004	 84.142940	-80.843150	-102.228400	-23.776510	-78.623810	-18.288790	 45.696530	 81.835570	-35.464180	 2.384659	 28.388700	-0.000001	-3.864262	 16.123650	 2.167523	-3.029892	 24.809210	 4.964784	 3.791520	-5.087611	-0.143181	-97.295300	 70.448630	 159.259300	 9.929588	 1.693076	-40.215520	-3.863669	 10.614590	-35.707820	-25.433630	-19.658590	-20.661340	-2.027600	 6.559038	 9.033609	-5.188889	 0.308190	 3.541030	-5.234859	 0.342567	 0.430617	-1.014536	 3.324742	-2.447746	 4.950455	-13.155310	-0.989040	 96.589160	 64.386010	-161.499000	-5.188571	 4.622211	 50.463960	-6.158728	 0.892635	 30.870850	 7.084882	-16.857750	 16.672930	 1.803333	 3.979147	-15.098590	 4.898592	 3.004813	-9.310344	 5.224449	 0.395017	 2.014677
-0.035389	 0.290683	 0.997084	-0.527084	 30.199430	-3.750890	-15.194770	-82.929370	 162.628500	 8.276693	-75.829440	 8.432574	-26.439080	 84.481900	 27.221710	-2.385833	 28.452760	 0.000004	 65.996080	-80.537790	-120.160000	-22.360370	-76.826640	-16.786900	 43.592230	 81.689880	-33.083480	 2.384659	 28.388700	-0.000001	-3.915417	 16.517520	 2.031951	-2.818189	 25.321840	 4.516906	 3.626009	-6.520934	-0.196837	-95.731770	 73.007110	 160.001500	 10.787920	 6.070971	-42.482870	-3.422033	 10.308830	-35.805730	-26.388080	-20.332900	-21.884620	-2.027600	 6.559038	 9.033609	-5.188889	 0.308190	 3.541030	-5.234859	 0.342567	 0.430617	-1.259531	-2.494378	-2.204497	 4.692150	-7.528566	-1.446182	 95.757000	 65.971880	-162.323800	-6.289301	 7.084561	 51.359580	-6.554352	 0.672838	 31.515710	 7.095281	-17.456040	 17.337970	 1.803333	 3.979147	-15.098590	 4.898592	 3.004813	-9.310344	 5.224449	 0.395017	 2.014677
-0.033410	 0.289804	 1.013023	-0.469601	 28.555080	-3.208373	-13.020580	-79.778270	 165.141700	 7.787171	-73.702620	 7.878294	-24.471130	 83.923040	 24.944640	-2.385833	 28.452750	 0.000004	 48.475960	-79.025380	-137.394900	-19.396830	-74.783180	-13.770270	 41.465950	 81.537980	-31.057900	 2.384659	 28.388700	-0.000001	-4.008034	 16.844550	 1.827789	-2.638701	 25.708150	 3.999542	 3.437371	-8.017410	-0.190943	-94.013870	 75.577930	 160.700500	 12.515610	 10.254050	-44.832680	-2.928555	 9.977524	-35.945880	-26.990150	-20.980030	-23.125270	-2.027600	 6.559038	 9.033609	-5.188889	 0.308190	 3.541030	-5.234859	 0.342567	 0.430617	-1.495702	-8.852562	-2.374926	 4.482045	-1.433446	-1.672484	 94.881730	 67.681810	-163.178300	-7.806477	 9.713994	 51.986100	-6.908607	 0.474838	 32.585470	 7.075171	-18.091650	 17.769840	 1.803333	 3.979147	-15.098590	 4.898592	 3.004813	-9.310344	 5.224449	 0.395017	 2.014677
-0.030384	 0.287245	 1.030993	-0.131867	 26.948670	-2.741384	-11.470930	-76.417620	 167.190400	 7.297465	-71.219110	 7.338052	-20.856830	 83.315720	 21.059920	-2.385833	 28.452750	 0.000004	 35.657220	-76.470930	-149.786200	-16.142140	-72.435750	-10.494880	 39.970570	 81.234800	-29.825000	 2.384659	 28.388700	-0.000001	-4.041780	 16.741620	 1.391935	-2.538795	 25.879170	 3.419496	 3.252406	-9.465427	-0.216611	-93.193550	 76.634560	 161.701500	 14.543250	 13.121380	-45.915010	-2.286438	 9.796351	-36.837200	-26.947880	-21.408950	-24.330780	-2.027600	 6.559038	 9.033609	-5.188889	 0.308190	 3.541030	-5.234859	 0.342567	 0.430617	-1.666456	-13.364880	-2.165961	 4.270228	 2.888914	-2.005356	 94.166330	 69.008300	-164.002700	-9.535342	 12.175870	 51.780450	-7.246455	 0.278332	 34.490010	 6.911743	-18.561600	 18.012670	 1.803333	 3.979147	-15.098590	 4.898592	 3.004813	-9.310344	 5.224449	 0.395017	 2.014677
-0.025319	 0.281529	 1.055143	 0.648334	 25.354570	-2.257927	-9.861056	-72.383290	 169.546500	 6.681732	-67.715920	 6.572963	-14.860090	 82.442310	 14.868500	-2.385833	 28.452750	 0.000004	 25.892370	-72.670860	-158.843300	-12.683070	-69.068100	-7.044572	 38.562350	 80.538450	-28.702170	 2.384659	 28.388700	-0.000001	-3.985360	 15.804410	 0.521609	-2.547890	 25.831890	 2.657485	 3.035322	-11.130000	-0.336296	-93.985890	 75.044380	 163.491700	 16.874650	 14.323470	-44.359840	-1.252989	 9.849032	-39.400410	-25.906790	-21.465810	-25.524000	-2.027600	 6.559038	 9.033609	-5.188889	 0.308190	 3.541030	-5.234859	 0.342567	 0.430617	-1.683987	-14.741880	-0.999344	 4.016290	 4.290040	-2.685368	 93.769150	 69.361370	-165.023100	-11.644790	 14.433950	 49.940040	-7.631735	 0.015464	 37.915480	 6.394550	-18.670950	 18.134760	 1.803333	 3.979147	-15.098590	 4.898592	 3.004813	-9.310344	 5.224449	 0.395017	 2.014677
-0.021805	 0.274574	 1.078638	 1.206985	 24.003470	-1.901038	-9.140299	-68.422990	 170.902800	 6.062624	-64.117940	 5.834002	-11.754260	 81.341560	 11.543580	-2.385833	 28.452750	 0.000004	 19.825980	-68.817290	-164.313600	-10.209630	-65.511730	-4.609940	 35.010760	 79.724910	-25.513520	 2.384659	 28.388700	-0.000001	-3.971660	 14.480680	 0.120666	-2.303610	 25.612700	 1.994467	 2.731658	-12.583190	-0.327444	-94.375480	 73.889690	 164.772500	 19.188000	 15.087970	-42.625800	-0.240829	 9.898040	-42.154900	-24.590680	-21.339900	-25.596280	-2.027600	 6.559038	 9.033609	-5.188889	 0.308190	 3.541030	-5.234859	 0.342567	 0.430617	-1.793236	-15.224970	-0.980513	 3.841232	 5.012392	-2.519108	 93.964000	 67.576110	-166.314200	-13.304630	 14.696070	 47.078240	-7.863275	-0.190481	 41.973320	 5.549217	-18.231750	 18.200180	 1.803333	 3.979147	-15.098590	 4.898592	 3.004813	-9.310344	 5.224449	 0.395017	 2.014677
-0.019338	 0.266046	 1.103519	 1.739042	 22.688760	-1.563829	-8.768900	-64.166460	 171.834900	 5.405915	-60.044490	 5.048985	-9.726228	 80.036560	 9.348631	-2.385833	 28.452750	 0.000004	 15.299780	-64.614780	-168.307400	-8.199302	-61.398220	-2.681044	 30.760140	 78.819420	-21.631890	 2.384659	 28.388700	-0.000001	-3.788534	 12.782510	-0.120973	-1.861000	 25.192890	 1.239554	 2.386364	-13.853770	-0.367798	-94.703130	 72.527870	 166.087800	 21.289450	 15.540690	-40.974700	 0.811540	 9.886258	-45.131210	-23.062480	-20.997850	-24.845900	-2.027600	 6.559038	 9.033609	-5.188889	 0.308190	 3.541030	-5.234859	 0.342567	 0.430617	-1.838765	-15.181080	-0.787855	 3.592922	 5.350163	-2.489853	 93.976710	 65.790180	-167.715100	-14.675550	 14.712470	 43.979360	-8.091696	-0.462268	 46.398560	 4.662855	-17.672400	 17.987370	 1.803333	 3.979147	-15.098590	 4.898592	 3.004813	-9.310344	 5.224449	 0.395017	 2.014677
